Complete name : Aakhir Kyon 1985 2CD DvDrip MKV ~ Drama | Family ~ [RdY] 
Format : Matroska
File size : 1.36 GiB
Duration : 2h 32mn
Overall bit rate : 1 285 Kbps


Video
ID : 1
Format : AVC
Format/Info : Advanced Video Codec
Format profile : High@L4.0
Format settings, CABAC : Yes
Format settings, ReFrames : 3 frames
Muxing mode : Container profile=Unknown@4.0
Codec ID : V_MPEG4/ISO/AVC
Duration : 2h 32mn
Bit rate mode : Variable
Bit rate : 1 156 Kbps
Maximum bit rate : 25.0 Mbps
Width : 512 pixels
Height : 384 pixels
Display aspect ratio : 4:3
Frame rate : 29.970 fps
Color space : YUV
Chroma subsampling : 4.2.0
Bit depth : 8 bits
Scan type : Progressive
Bits/(Pixel*Frame) : 0.196
Stream size : 1.20 GiB (88%)
Writing library : x264 core 67 r1169M ab85c9b

Audio
ID : 2
Format : MPEG Audio
Format version : Version 1
Format profile : Layer 3
Mode : Joint stereo
Mode extension : MS Stereo
Codec ID : A_MPEG/L3
Codec ID/Hint : MP3
Duration : 2h 32mn
Bit rate mode : Constant
Bit rate : 128 Kbps
Channel(s) : 2 channels
Sampling rate : 48.0 KHz
Video delay : 500ms
Stream size : 139 MiB (10%)
Writing library : LAME3.96.1


Color
C

Release Date
1985

Genre
Family Drama

Producer
J Om Prakash

Director
J Om Prakash

Star Cast
Rajesh Khanna...... Alok Nath
Smita Patil...... Mrs. Kabir Suri/Nisha Sharma/Asha Shri
Rakesh Roshan...... Kabir Suri
Tina Munim...... Indu Sharma
Asrani...... Radha Raman Goswami
Sujit Kumar...... Mr. S. Kumar
Shobha Khote
Baby Guddo...... Nisha's daughter
Renu Joshi
Indu Shivraj...... Indu's Father

Cassettes and CD's on
T-Series

Publicity Designs
Studio Link